<svg width="15" height="11" viewBox="0 0 15 11" fill="none" xmlns="http://www.w3.org/2000/svg">
<path d="M13.5937 0H1.40626C0.6308 0 0 0.600761 0 1.33929V9.37499C0 10.1135 0.6308 10.7143 1.40626 10.7143H13.5937C14.3692 10.7143 15 10.1135 15 9.37499V1.33929C15 0.600761 14.3692 0 13.5937 0V0ZM13.5937 0.892852C13.6574 0.892852 13.718 0.905436 13.7734 0.927414L7.5 6.10569L1.22656 0.927414C1.28195 0.905466 1.34254 0.892852 1.40623 0.892852H13.5937ZM13.5937 9.8214H1.40626C1.14763 9.8214 0.937496 9.62131 0.937496 9.37496V1.87072L7.19283 7.03385C7.2812 7.10665 7.3906 7.14285 7.5 7.14285C7.6094 7.14285 7.7188 7.10668 7.80717 7.03385L14.0625 1.87072V9.37499C14.0625 9.62131 13.8524 9.8214 13.5937 9.8214V9.8214Z" fill="black"/>
</svg>
