<svg xmlns="http://www.w3.org/2000/svg" viewBox="0 0 71 35.74"><g id="Layer_2" data-name="Layer 2"><g id="Layer_1-2" data-name="Layer 1"><g id="Layer_2-2" data-name="Layer 2"><g id="Layer_1-2-2" data-name="Layer 1-2"><polygon points="0 0 0 35.73 10.89 35.73 10.89 16.11 16.36 16.11 25.51 30.13 25.51 16.11 30.98 16.11 30.98 35.73 34.79 35.73 34.79 16.27 41.48 16.27 47.59 31.91 53.58 16.27 60.23 16.27 60.23 35.73 71 35.73 71 0 0 0"/><polygon points="54.76 35.73 54.76 24.68 50.94 35.73 54.76 35.73"/><polygon points="16.36 35.73 23.54 35.73 16.36 24.84 16.36 35.73"/><polygon points="40.26 35.73 44.12 35.73 40.26 24.66 40.26 35.73"/></g></g></g></g></svg>